HIERARCHY
ROOT root     
{
	OFFSET 0.0000 0.0000 0.0000
	CHANNELS 6 Xposition Yposition Zposition Zrotation Yrotation Xrotation
	JOINT pelvis   
	{
		OFFSET 0.0000 0.0000 0.0000
		CHANNELS 3 Zrotation Yrotation Xrotation
		JOINT thorax   
		{
			OFFSET 0.0000 23.0750 -5.0000
			CHANNELS 3 Zrotation Yrotation Xrotation
			JOINT rclavicle
			{
				OFFSET 0.0000 28.0009 0.0000
				CHANNELS 3 Zrotation Yrotation Xrotation
				JOINT rhumerus 
				{
					OFFSET -18.5725 5.5939 0.0000
					CHANNELS 3 Zrotation Yrotation Xrotation
					JOINT rradius  
					{
						OFFSET -24.8459 0.0000 0.0000
						CHANNELS 3 Zrotation Yrotation Xrotation
						JOINT rhand    
						{
							OFFSET -24.5477 0.0000 0.0000
							CHANNELS 3 Zrotation Yrotation Xrotation
							End Site
							{
								OFFSET -8.1826 0.0000 0.0000
							}
						}
					}
				}
			}
			JOINT lclavicle
			{
				OFFSET 0.0000 28.0009 0.0000
				CHANNELS 3 Zrotation Yrotation Xrotation
				JOINT lhumerus 
				{
					OFFSET 18.5725 5.5939 0.0000
					CHANNELS 3 Zrotation Yrotation Xrotation
					JOINT lradius  
					{
						OFFSET 24.8459 0.0000 0.0000
						CHANNELS 3 Zrotation Yrotation Xrotation
						JOINT lhand    
						{
							OFFSET 24.5477 0.0000 0.0000
							CHANNELS 3 Zrotation Yrotation Xrotation
							End Site
							{
								OFFSET 8.1826 0.0000 0.0000
							}
						}
					}
				}
			}
			JOINT head     
			{
				OFFSET 0.0000 35.2030 0.0000
				CHANNELS 3 Zrotation Yrotation Xrotation
				End Site
				{
					OFFSET 0.0000 11.7343 0.0000
				}
			}
		}
		JOINT rfemur   
		{
			OFFSET -8.2817 0.0000 0.0000
			CHANNELS 3 Zrotation Yrotation Xrotation
			JOINT rtibia   
			{
				OFFSET 0.0000 -43.3627 0.0000
				CHANNELS 3 Zrotation Yrotation Xrotation
				JOINT rfoot    
				{
					OFFSET 0.0000 -38.2947 0.0000
					CHANNELS 3 Zrotation Yrotation Xrotation
					JOINT rtoes    
					{
						OFFSET 0.0000 0.0000 16.6054
						CHANNELS 3 Zrotation Yrotation Xrotation
						End Site
						{
							OFFSET 0.0000 0.0000 5.5351
						}
					}
				}
			}
		}
		JOINT lfemur   
		{
			OFFSET 8.2817 0.0000 0.0000
			CHANNELS 3 Zrotation Yrotation Xrotation
			JOINT ltibia   
			{
				OFFSET 0.0000 -43.3627 0.0000
				CHANNELS 3 Zrotation Yrotation Xrotation
				JOINT lfoot    
				{
					OFFSET 0.0000 -38.2947 0.0000
					CHANNELS 3 Zrotation Yrotation Xrotation
					JOINT ltoes    
					{
						OFFSET 0.0000 0.0000 16.6054
						CHANNELS 3 Zrotation Yrotation Xrotation
						End Site
						{
							OFFSET 0.0000 0.0000 5.5351
						}
					}
				}
			}
		}
	}
}
MOTION
Frames: 15
Frame Time: .0333333
-76.529 78.16 -14.961 -44 85.2214 -21.7074 0 -0 0 -4.35073 2.09037 18.8416 22.716 -4.76931 1.7225e-05 52.0812 -1.22262 11.1095 -180 87.1799 -180 -1.19591 3.05727 -0.0319001 -21.8094 13.4289 1.96969e-05 -52.2449 23.5618 8.2952 0 -67.6236 -0 -1.50336 5.16711 -0.067798 3.82111 -1.12703 -17.0537 0.22005 -13.2424 -26.6524 -0 -0 65.983 -9.89892e-06 7.96787 10.979 1.52701 7.41384e-06 -85.7845 -5.6468 10.2796 -61.2043 -0 -0 51.6004 9.83127e-07 10.7644 -1.10168 -0.209395 2.53614e-07 -15.2293 
-75.576 78.034 -15.097 -43.8567 85.3125 -21.8065 0 -0 0 -4.47796 2.02807 18.9377 22.8523 -4.69884 1.7395e-05 52.4315 -1.6168 10.8153 -180 88.0092 -180 -1.24079 3.09796 -0.0335991 -22.1066 13.2546 2.96946e-05 -51.9769 22.6051 8.09346 9.23708e-07 -67.3875 -6.15883e-07 -1.30136 5.22526 -0.0593987 3.74526 -1.20982 -17.0044 -0.271129 -13.0939 -26.5096 -0 -0 66.9516 -1.9945e-05 8.31782 12.5717 1.82267 -3.07197e-05 -85.0244 -5.70048 10.2186 -60.7808 -0 -0 52.6766 4.99984e-06 11.0264 -2.42137 -0.471703 1.71887e-09 -15.8008 
-74.636 77.926 -15.226 -43.8472 85.3926 -22.031 0 -0 0 -4.57725 1.96821 19.033 22.9747 -4.62986 1.33431e-05 52.8177 -1.97159 10.5039 -180 88.9981 -180 -1.29959 3.13782 -0.0355999 -22.3946 13.1013 -2.9357e-05 -51.7329 21.5558 7.86956 0 -67.1163 -0 -1.06359 5.30407 -0.0492988 3.63446 -1.2817 -16.8602 -0.700943 -12.9169 -26.4027 -0 -0 67.9053 -3.32538e-07 8.51103 14.142 2.09395 1.87541e-05 -83.7274 -5.7332 10.1531 -60.2876 -0 -0 53.6086 -4.27018e-06 11.2824 -3.68934 -0.735503 -4.50265e-07 -16.4537 
-73.711 77.835 -15.347 -43.9112 85.4767 -22.3197 0 -0 0 -4.65547 1.90941 19.1122 23.0828 -4.55515 1.34694e-05 53.2364 -2.29452 10.1721 -0 89.8005 -0 -1.36419 3.17358 -0.0377993 -22.6758 12.9501 -7.60758e-06 -51.5218 20.459 7.59818 0 -66.841 -0 -0.786611 5.40818 -0.0372006 3.49593 -1.33444 -16.6175 -1.06394 -12.7198 -26.3495 -0 -0 68.8515 -3.78834e-05 8.50732 15.6426 2.30973 -3.92075e-05 -81.8945 -5.74127 10.0812 -59.7432 -0 -0 54.4092 4.66632e-06 11.5221 -4.86045 -0.989591 1.76001e-06 -17.0955 
-72.804 77.763 -15.46 -44.0749 85.5347 -22.6837 0 -0 0 -4.7165 1.84972 19.1705 23.177 -4.48217 5.8951e-06 53.6864 -2.5734 9.83037 -3.16012e-06 88.6142 -3.08465e-06 -1.43446 3.20414 -0.0400995 -22.936 12.809 1.78812e-05 -51.3584 19.3212 7.27524 5.89058e-07 -66.5648 -8.97342e-07 -0.469403 5.53938 -0.0227002 3.33785 -1.36197 -16.2846 -1.35306 -12.5136 -26.3609 -0 -0 69.7905 -1.89398e-05 8.25739 17.0096 2.43113 1.64565e-05 -79.6126 -5.72333 10.0036 -59.1724 -0 -0 55.0964 -1.24528e-07 11.7382 -5.90598 -1.22484 -7.34417e-06 -17.6558 
-71.917 77.709 -15.564 -44.2891 85.5936 -23.075 0 -0 0 -4.76752 1.78638 19.201 23.2564 -4.40949 2.19423e-05 54.1612 -2.80981 9.48112 -0 87.2172 -0 -1.51295 3.22556 -0.0425978 -23.1682 12.6684 7.15689e-05 -51.2505 18.166 6.89251 5.81106e-07 -66.3127 -8.8952e-07 -0.111501 5.69683 -0.00550003 3.17123 -1.35986 -15.8732 -1.56613 -12.308 -26.4501 -0 -0 70.7261 1.47902e-05 7.71867 18.1895 2.42265 -2.48664e-06 -76.9859 -5.68293 9.92468 -58.5913 -0 -0 55.6861 1.97444e-05 11.9245 -6.81316 -1.43514 -9.08574e-06 -18.0901 
-71.053 77.674 -15.658 -44.5882 85.6264 -23.5168 0 -0 0 -4.81206 1.71668 19.2046 23.3222 -4.34516 -3.11157e-06 54.6595 -2.99382 9.13304 -4.133e-06 85.6586 -3.83095e-06 -1.60501 3.23594 -0.0452997 -23.3595 12.5338 -4.8116e-05 -51.2041 16.9982 6.4578 5.74239e-07 -66.0885 -8.82779e-07 0.2842 5.87835 0.0146002 3.00608 -1.32705 -15.3987 -1.70135 -12.1113 -26.6235 -0 -0 71.6577 4.60724e-06 6.85909 19.1243 2.25684 5.62622e-05 -74.1446 -5.62368 9.84664 -58.0207 -0 -0 56.1989 -7.62032e-06 12.0809 -7.58466 -1.61822 -1.69978e-05 -18.3875 
-70.213 77.656 -15.742 -44.9565 85.6629 -23.9981 0 -0 0 -4.85463 1.63768 19.1813 23.3749 -4.28805 1.59462e-05 55.1725 -3.12973 8.787 -5.66483e-06 83.9781 -5.74101e-06 -1.71652 3.23166 -0.0484 -23.5058 12.3982 -4.066e-05 -51.2212 15.8343 5.97409 0 -65.9111 -0 0.713414 6.07893 0.0379006 2.8532 -1.26439 -14.8802 -1.76012 -11.9307 -26.8876 -0 -0 72.5841 -1.81549e-05 5.66764 19.7757 1.92318 1.18121e-05 -71.1975 -5.55172 9.77489 -57.4709 -0 -0 56.6455 -2.29655e-05 12.207 -8.23532 -1.77483 1.52014e-05 -18.5645 
-69.4 77.656 -15.815 -45.398 85.6938 -24.5185 0 -0 0 -4.89935 1.54599 19.1324 23.418 -4.23017 -8.05541e-06 55.6935 -3.23326 8.44169 -2.06691e-06 82.1932 -2.36948e-06 -1.86012 3.21075 -0.0520982 -23.6036 12.2414 -4.29446e-05 -51.2958 14.7083 5.43838 8.74673e-07 -65.8102 -5.65964e-07 1.16922 6.28942 0.0642015 2.72261 -1.17475 -14.3377 -1.74597 -11.7716 -27.246 -0 -0 73.4989 -1.76477e-06 4.15674 20.1183 1.43201 1.75938e-05 -68.2298 -5.47444 9.71397 -56.9542 -0 -0 57.0378 5.13581e-05 12.305 -8.78847 -1.90887 5.62828e-06 -18.6556 
-68.612 77.673 -15.876 -45.9671 85.7058 -25.129 0 -0 0 -4.94489 1.4396 19.067 23.4513 -4.17704 -4.81352e-06 56.2167 -3.30255 8.09983 -1.37237e-06 80.3209 -1.15815e-06 -2.03919 3.171 -0.0563997 -23.6477 12.0718 7.21834e-07 -51.4214 13.6115 4.87562 8.74e-07 -65.787 -5.65277e-07 1.64183 6.50258 0.093301 2.61987 -1.06389 -13.7908 -1.66205 -11.6333 -27.6955 -0 -0 74.3943 -1.9479e-05 2.36995 20.1291 0.816001 1.52613e-06 -65.2874 -5.3963 9.67047 -56.4681 -0 -0 57.3805 4.64534e-06 12.3808 -9.27157 -2.02549 -7.60831e-06 -18.7102 
-67.848 77.707 -15.927 -46.637 85.7369 -25.8158 0 -0 0 -4.98874 1.31579 18.9913 23.4788 -4.12865 -2.04594e-05 56.7315 -3.34547 7.76171 -0 78.3861 -0 -2.25676 3.11141 -0.0612991 -23.6403 11.8951 9.80141e-05 -51.5851 12.5381 4.31003 0 -65.8518 -0 2.12052 6.71011 0.1243 2.5487 -0.937873 -13.2582 -1.51382 -11.5141 -28.2306 -0 -0 75.2564 7.57895e-07 0.377801 19.8084 0.128002 -6.52943e-07 -62.376 -5.32135 9.64907 -56.0108 -0 -0 57.6773 -5.19777e-05 12.4368 -9.71141 -2.13041 3.49711e-06 -18.7773 
-67.109 77.756 -15.966 -47.4848 85.7523 -26.6509 0 -0 0 -5.02906 1.17379 18.9138 23.4994 -4.07834 1.42168e-05 57.2297 -3.37947 7.42518 -1.12298e-06 76.4032 -1.42697e-06 -2.52007 3.03504 -0.0667999 -23.5847 11.6926 4.07586e-05 -51.7793 11.5149 3.74193 0 -66.0154 -0 2.5907 6.90023 0.1562 2.51035 -0.804223 -12.7541 -1.30846 -11.4108 -28.8442 -0 -0 76.0745 1.08752e-05 -1.72828 19.1675 -0.567613 -1.69859e-06 -59.4691 -5.25204 9.65267 -55.5745 -0 -0 57.9242 3.41382e-05 12.4755 -10.13 -2.22845 6.73626e-06 -18.8958 
-66.391 77.82 -15.995 -48.5036 85.7796 -27.6421 0 -0 0 -5.06046 1.01352 18.8422 23.5159 -4.02526 2.14518e-05 57.7051 -3.41543 7.08968 -0 74.4078 -0 -2.8275 2.94571 -0.0726996 -23.4821 11.4629 4.40539e-05 -51.9908 10.5432 3.18729 5.80324e-07 -66.2861 -8.88759e-07 3.03798 7.06462 0.1876 2.50254 -0.670191 -12.2912 -1.05274 -11.3176 -29.5251 -0 -0 76.8339 1.11173e-07 -3.84204 18.2382 -1.2041 2.91487e-06 -56.5439 -5.1883 9.6828 -55.1521 -0 -0 58.1205 -1.1194e-05 12.5016 -10.5427 -2.32313 2.26871e-05 -19.1016 
-65.692 77.897 -16.014 -49.7415 85.8086 -28.8388 0 -0 0 -5.07606 0.834297 18.7848 23.5297 -3.97523 4.4535e-06 58.1464 -3.45655 6.75447 -8.35333e-07 72.425 -1.14078e-06 -3.16389 2.84314 -0.0784982 -23.3421 11.2346 -9.88161e-06 -52.2002 9.58469 2.68592 5.91581e-07 -66.6469 -8.99809e-07 3.4511 7.20193 0.2173 2.51844 -0.541093 -11.8758 -0.753846 -11.2265 -30.2642 -0 -0 77.5246 2.59193e-05 -5.85468 17.0713 -1.72418 1.05207e-06 -53.5938 -5.12743 9.73908 -54.7328 -0 -0 58.2595 -1.20234e-05 12.5162 -10.9558 -2.41589 3.43087e-07 -19.414 
-65.009 77.985 -16.023 -51.2182 85.8248 -30.2628 0 -0 0 -5.07111 0.63772 18.7494 23.5406 -3.92462 -7.05243e-07 58.5491 -3.51797 6.41685 -1.04348e-06 70.4788 -7.37185e-07 -3.52179 2.7346 -0.0841004 -23.1713 10.9977 3.84872e-06 -52.3977 8.65341 2.23814 6.06315e-07 -67.0983 -9.14311e-07 3.81671 7.30707 0.243791 2.55158 -0.422098 -11.5126 -0.419292 -11.1317 -31.0512 -0 -0 78.1339 -2.08327e-05 -7.67029 15.731 -2.09107 -2.42877e-06 -50.6441 -5.06529 9.81885 -54.3046 -0 -0 58.339 -7.57294e-05 12.5195 -11.3685 -2.50615 2.35463e-06 -19.8304 
